<?xml version="1.0" standalone="no"?>
<!DOCTYPE svg PUBLIC "-//W3C//DTD SVG 20010904//EN"
 "http://www.w3.org/TR/2001/REC-SVG-20010904/DTD/svg10.dtd">
<svg version="1.0" xmlns="http://www.w3.org/2000/svg"
 width="500.000000pt" height="500.000000pt" viewBox="0 0 500.000000 500.000000"
 preserveAspectRatio="xMidYMid meet">
<metadata>
Created by potrace 1.14, written by Peter Selinger 2001-2017
</metadata>
<g transform="translate(0.000000,500.000000) scale(0.100000,-0.100000)"
fill="#000000" stroke="none">
<path d="M2527 2867 c-59 -77 -187 -357 -187 -409 0 -16 -127 -114 -136 -105
-3 3 -5 24 -6 48 0 24 -5 50 -10 59 -16 26 16 79 52 87 33 6 42 39 15 49 -51
20 -116 -47 -117 -121 -1 -41 -6 -50 -41 -81 -68 -57 -73 -42 -27 73 17 41 30
83 30 94 0 33 -35 22 -63 -20 -25 -37 -29 -39 -62 -34 -32 5 -39 2 -75 -36
-47 -49 -80 -142 -60 -166 22 -26 50 -16 100 34 l49 49 3 -42 c3 -36 6 -41 30
-44 27 -3 64 15 106 52 l22 19 0 -35 c0 -21 -7 -41 -17 -49 -33 -27 -73 -93
-73 -119 0 -56 53 -68 94 -20 23 28 46 86 46 117 0 6 21 26 48 45 77 56 73 57
66 -25 -9 -96 -1 -129 29 -125 17 2 34 27 72 99 28 52 61 113 75 135 l25 39 7
-48 c10 -75 35 -90 101 -62 14 6 17 2 17 -23 0 -63 52 -79 114 -37 l36 24 0
-35 c0 -39 21 -54 46 -33 9 7 27 36 41 63 28 56 89 136 104 136 5 0 9 -16 9
-35 0 -47 40 -90 73 -79 12 4 36 7 53 5 32 -1 69 31 147 129 19 23 27 28 23
15 -30 -117 -41 -351 -18 -393 18 -31 48 -25 44 8 -1 14 -3 72 -4 130 -2 164
45 357 127 520 54 106 59 124 41 139 -30 25 -49 0 -125 -171 -41 -94 -89 -162
-105 -149 -20 16 -58 -10 -93 -64 -45 -70 -83 -115 -98 -115 -7 0 -15 20 -18
51 -10 84 -35 98 -94 53 -30 -23 -33 -24 -33 -6 0 11 7 36 16 57 11 27 12 41
4 49 -19 19 -44 -8 -70 -80 -19 -53 -39 -83 -85 -131 -34 -35 -66 -63 -73 -63
-22 0 -13 63 14 102 18 25 24 43 19 55 -5 10 -7 24 -6 31 3 18 -27 26 -44 12
-8 -7 -20 -29 -26 -49 -10 -34 -57 -80 -76 -74 -5 2 -10 33 -13 70 -5 62 -7
68 -28 71 -31 5 -77 -46 -136 -151 -25 -45 -46 -77 -46 -71 0 31 22 119 33
132 6 8 12 32 13 52 0 25 19 69 62 146 72 129 125 251 118 270 -9 23 -32 16
-59 -19z m3 -77 c-21 -42 -35 -59 -42 -52 -6 6 3 30 29 71 47 76 55 64 13 -19z
m887 -58 c-24 -48 -53 -113 -62 -144 -16 -48 -22 -57 -40 -56 -21 2 -21 4 13
57 19 30 46 82 59 115 37 91 66 143 71 128 2 -7 -16 -52 -41 -100z m-947 -59
c0 -9 -79 -151 -80 -143 0 7 40 111 51 132 10 18 29 25 29 11z m-401 -145 c-7
-12 -20 -45 -30 -73 -10 -27 -18 -42 -19 -32 0 19 -11 22 -27 6 -7 -7 -9 -3
-6 15 3 14 11 26 18 26 7 0 24 18 39 40 28 43 44 54 25 18z m307 -54 c-4 -9
-9 -15 -11 -12 -3 3 -3 13 1 22 4 9 9 15 11 12 3 -3 3 -13 -1 -22z m173 -27
c-2 -31 -2 -31 -6 -4 -3 21 -9 27 -20 23 -13 -5 -14 -4 -3 9 18 21 30 9 29
-28z m669 23 c-7 -10 -14 -17 -17 -15 -4 4 18 35 25 35 2 0 -1 -9 -8 -20z
m-213 -11 c11 -16 1 -19 -13 -3 -7 8 -8 14 -3 14 5 0 13 -5 16 -11z m-1044
-16 c-5 -10 -21 -29 -36 -43 l-28 -25 17 32 c9 18 24 37 33 42 24 14 25 14 14
-6z m1179 -103 c0 -5 -5 -10 -11 -10 -5 0 -7 5 -4 10 3 6 8 10 11 10 2 0 4 -4
4 -10z m-1100 -16 c0 -2 -7 -4 -15 -4 -8 0 -15 4 -15 10 0 5 7 7 15 4 8 -4 15
-8 15 -10z m163 -7 c7 3 5 -2 -5 -13 -9 -10 -21 -35 -26 -54 -7 -25 -10 -29
-11 -12 -1 25 -10 28 -31 10 -8 -7 -3 1 13 18 15 16 27 41 27 55 1 21 2 22 11
6 6 -10 16 -14 22 -10z m-318 3 c-3 -5 -10 -10 -16 -10 -5 0 -9 5 -9 10 0 6 7
10 16 10 8 0 12 -4 9 -10z m950 -61 c-22 -41 -28 -36 -20 14 9 55 16 65 27 38
5 -15 3 -32 -7 -52z m-134 3 c-7 -2 -18 1 -23 6 -8 8 -4 9 13 5 13 -4 18 -8
10 -11z m-336 -52 c-17 -33 -35 -32 -35 3 0 15 3 18 9 9 6 -10 10 -10 21 3 20
24 22 18 5 -15z"/>
<path d="M1754 2844 c-67 -44 -129 -128 -236 -323 -38 -69 -67 -117 -64 -106
3 11 8 38 12 60 3 22 26 105 51 184 44 144 47 175 16 169 -33 -6 -125 -327
-138 -486 -6 -65 -5 -80 9 -91 23 -19 43 0 73 69 98 221 196 384 274 454 56
50 69 55 69 28 0 -46 -62 -140 -150 -227 -49 -49 -90 -96 -90 -103 0 -22 25
-23 71 -3 55 26 91 26 113 2 16 -17 14 -20 -31 -57 -158 -128 -233 -213 -233
-265 0 -32 28 -59 62 -59 66 0 182 125 240 260 15 36 28 78 28 93 0 42 -35 85
-75 93 l-35 6 46 52 c84 96 130 226 92 264 -19 19 -62 14 -104 -14z m-42 -277
c-28 -30 -28 -47 1 -48 12 0 -1 -6 -28 -13 -28 -7 -57 -16 -65 -20 -8 -5 12
17 45 47 62 58 85 74 47 34z m88 -156 c-6 -12 -16 -18 -25 -15 -12 5 -11 11 8
33 24 30 36 17 17 -18z m-77 -103 c-32 -60 -133 -168 -157 -168 -20 0 -20 4
-2 39 13 25 170 181 182 181 3 0 -7 -24 -23 -52z m-284 -19 c-11 -21 -12 -21
-22 -4 -7 14 -6 21 9 32 23 17 30 2 13 -28z m171 -22 c0 -2 -15 -16 -32 -33
l-33 -29 29 33 c28 30 36 37 36 29z m-77 -127 c3 -11 1 -18 -4 -14 -5 3 -9 12
-9 20 0 20 7 17 13 -6z m107 16 c0 -2 -8 -10 -17 -17 -16 -13 -17 -12 -4 4 13
16 21 21 21 13z"/>
<path d="M2695 2570 c-12 -20 6 -51 28 -48 31 4 31 52 0 56 -11 2 -24 -2 -28
-8z"/>
<path d="M3571 2541 c-28 -35 -36 -39 -61 -35 -39 8 -79 -22 -114 -85 -19 -36
-26 -62 -24 -88 5 -57 35 -56 97 2 l50 47 3 -39 c3 -33 6 -38 31 -41 49 -6
177 92 177 134 0 36 -19 30 -85 -26 -33 -27 -63 -50 -68 -50 -12 0 -1 41 30
115 14 33 26 69 26 80 3 35 -29 28 -62 -14z m15 -52 c-14 -30 -25 -50 -25 -45
-1 4 -12 1 -26 -8 -26 -17 -26 -17 -13 6 7 13 18 26 25 31 6 4 21 23 33 43 32
50 34 36 6 -27z m-86 -36 c-1 -13 -70 -87 -70 -75 0 11 57 82 66 82 2 0 4 -3
4 -7z m-86 -134 c-6 -11 -24 -2 -24 11 0 5 7 7 15 4 8 -4 12 -10 9 -15z m151
3 c-3 -3 -11 0 -18 7 -9 10 -8 11 6 5 10 -3 15 -9 12 -12z"/>
</g>
</svg>
